<svg width="19" height="19" viewBox="0 0 19 19" fill="none" xmlns="http://www.w3.org/2000/svg">
<path d="M4.15625 0C4.31372 0 4.46475 0.0625556 4.57609 0.173905C4.68744 0.285255 4.75 0.436278 4.75 0.59375V1.1875H14.25V0.59375C14.25 0.436278 14.3126 0.285255 14.4239 0.173905C14.5353 0.0625556 14.6863 0 14.8438 0C15.0012 0 15.1522 0.0625556 15.2636 0.173905C15.3749 0.285255 15.4375 0.436278 15.4375 0.59375V1.1875H16.625C17.2549 1.1875 17.859 1.43772 18.3044 1.88312C18.7498 2.32852 19 2.93261 19 3.5625V16.625C19 17.2549 18.7498 17.859 18.3044 18.3044C17.859 18.7498 17.2549 19 16.625 19H2.375C1.74511 19 1.14102 18.7498 0.695621 18.3044C0.250223 17.859 0 17.2549 0 16.625V3.5625C0 2.93261 0.250223 2.32852 0.695621 1.88312C1.14102 1.43772 1.74511 1.1875 2.375 1.1875H3.5625V0.59375C3.5625 0.436278 3.62506 0.285255 3.73641 0.173905C3.84776 0.0625556 3.99878 0 4.15625 0V0ZM15.9766 3.5625H3.02219C2.66594 3.5625 2.375 3.8285 2.375 4.15625V5.34375C2.375 5.6715 2.66475 5.9375 3.02219 5.9375H15.9778C16.3341 5.9375 16.625 5.6715 16.625 5.34375V4.15625C16.625 3.8285 16.3353 3.5625 15.9766 3.5625ZM10.0938 8.3125C9.93628 8.3125 9.78525 8.37506 9.6739 8.48641C9.56256 8.59776 9.5 8.74878 9.5 8.90625V10.0938C9.5 10.2512 9.56256 10.4022 9.6739 10.5136C9.78525 10.6249 9.93628 10.6875 10.0938 10.6875H11.2812C11.4387 10.6875 11.5897 10.6249 11.7011 10.5136C11.8124 10.4022 11.875 10.2512 11.875 10.0938V8.90625C11.875 8.74878 11.8124 8.59776 11.7011 8.48641C11.5897 8.37506 11.4387 8.3125 11.2812 8.3125H10.0938ZM13.6562 8.3125C13.4988 8.3125 13.3478 8.37506 13.2364 8.48641C13.1251 8.59776 13.0625 8.74878 13.0625 8.90625V10.0938C13.0625 10.2512 13.1251 10.4022 13.2364 10.5136C13.3478 10.6249 13.4988 10.6875 13.6562 10.6875H14.8438C15.0012 10.6875 15.1522 10.6249 15.2636 10.5136C15.3749 10.4022 15.4375 10.2512 15.4375 10.0938V8.90625C15.4375 8.74878 15.3749 8.59776 15.2636 8.48641C15.1522 8.37506 15.0012 8.3125 14.8438 8.3125H13.6562ZM3.5625 12.4688V13.6562C3.5625 13.8137 3.62506 13.9647 3.73641 14.0761C3.84776 14.1874 3.99878 14.25 4.15625 14.25H5.34375C5.50122 14.25 5.65225 14.1874 5.76359 14.0761C5.87494 13.9647 5.9375 13.8137 5.9375 13.6562V12.4688C5.9375 12.3113 5.87494 12.1603 5.76359 12.0489C5.65225 11.9376 5.50122 11.875 5.34375 11.875H4.15625C3.99878 11.875 3.84776 11.9376 3.73641 12.0489C3.62506 12.1603 3.5625 12.3113 3.5625 12.4688ZM7.71875 11.875C7.56128 11.875 7.41025 11.9376 7.29891 12.0489C7.18756 12.1603 7.125 12.3113 7.125 12.4688V13.6562C7.125 13.8137 7.18756 13.9647 7.29891 14.0761C7.41025 14.1874 7.56128 14.25 7.71875 14.25H8.90625C9.06372 14.25 9.21474 14.1874 9.32609 14.0761C9.43744 13.9647 9.5 13.8137 9.5 13.6562V12.4688C9.5 12.3113 9.43744 12.1603 9.32609 12.0489C9.21474 11.9376 9.06372 11.875 8.90625 11.875H7.71875Z" fill="#401FB8"/>
</svg>
