<svg width="55" height="55" viewBox="0 0 55 55" fill="none" xmlns="http://www.w3.org/2000/svg">
<circle cx="27.5" cy="27.5" r="27.5" fill="#DBDBDB"/>
<path d="M33.6638 38.997C32.3716 40.3162 30.9606 40.1079 29.6024 39.483C28.1651 38.8442 26.8464 38.8164 25.33 39.483C23.4311 40.344 22.429 40.0941 21.2949 38.997C14.8599 32.0117 15.8094 21.3742 23.1147 20.9854C24.8948 21.0826 26.1344 22.013 27.1761 22.0963C28.7321 21.763 30.2222 20.8048 31.8837 20.9298C33.8748 21.0965 35.3781 21.9297 36.3671 23.4295C32.2529 26.0264 33.2287 31.734 37 33.331C36.2484 35.4141 35.2726 37.4833 33.6506 39.0109L33.6638 38.997ZM27.0442 20.902C26.8464 17.8052 29.2332 15.25 31.976 15C32.3584 18.5829 28.8903 21.2492 27.0442 20.902Z" fill="black"/>
</svg>
