<svg width="55" height="55" viewBox="0 0 55 55" fill="none" xmlns="http://www.w3.org/2000/svg">
<circle cx="27.5" cy="27.5" r="27.5" fill="#DBDBDB"/>
<path d="M23.894 15.6843C21.5208 16.5611 19.4741 18.2252 18.0546 20.4323C16.6351 22.6394 15.9176 25.273 16.0075 27.9464C16.0974 30.6199 16.99 33.1921 18.5541 35.2854C20.1182 37.3786 22.2715 38.8826 24.6975 39.5763C26.6644 40.1168 28.7251 40.1405 30.7025 39.6455C32.4938 39.217 34.1499 38.3004 35.5087 36.9855C36.9228 35.5752 37.9493 33.7811 38.4777 31.7961C39.0521 29.6375 39.1543 27.3674 38.7765 25.1601H27.7316V30.0393H34.128C34.0002 30.8175 33.7263 31.5602 33.3226 32.223C32.9189 32.8858 32.3938 33.4551 31.7788 33.8968C30.9977 34.447 30.1172 34.8172 29.1938 34.9837C28.2677 35.1671 27.3178 35.1671 26.3918 34.9837C25.4531 34.777 24.5652 34.3645 23.7846 33.7723C22.5304 32.8269 21.5887 31.4837 21.0938 29.9345C20.5906 28.3564 20.5906 26.6454 21.0938 25.0672C21.4461 23.961 22.0284 22.9538 22.7973 22.1207C23.6773 21.1499 24.7913 20.456 26.0172 20.1151C27.2431 19.7741 28.5335 19.7994 29.7468 20.188C30.6946 20.4979 31.5614 21.0393 32.2779 21.769C32.9992 21.0049 33.7192 20.2388 34.4379 19.4707C34.8091 19.0577 35.2136 18.6644 35.5792 18.2415C34.4854 17.1575 33.2015 16.3141 31.801 15.7594C29.2508 14.7733 26.4604 14.7468 23.894 15.6843Z" fill="black"/>
</svg>
