<svg width="25" height="25" viewBox="0 0 25 25" fill="none" xmlns="http://www.w3.org/2000/svg">
<path d="M10.4167 6.77083C10.4167 4.76042 8.78125 3.125 6.77083 3.125C4.76042 3.125 3.125 4.76042 3.125 6.77083C3.125 8.78125 4.76042 10.4167 6.77083 10.4167C7.35763 10.4126 7.93449 10.2649 8.45104 9.98646L10.9062 12.6198L8.49167 15.0344C7.96475 14.7426 7.37312 14.5875 6.77083 14.5833C4.76042 14.5833 3.125 16.2188 3.125 18.2292C3.125 20.2396 4.76042 21.875 6.77083 21.875C8.78125 21.875 10.4167 20.2396 10.4167 18.2292C10.4167 17.6031 10.2437 17.0229 9.96458 16.5083L12.3281 14.1458L17.7083 19.9177C18.2942 20.5038 19.089 20.8332 19.9177 20.8333H22.9167L9.73958 8.87292C10.1625 8.27708 10.4167 7.55521 10.4167 6.77083ZM6.77083 8.33333C5.90937 8.33333 5.20833 7.63229 5.20833 6.77083C5.20833 5.90937 5.90937 5.20833 6.77083 5.20833C7.63229 5.20833 8.33333 5.90937 8.33333 6.77083C8.33333 7.63229 7.63229 8.33333 6.77083 8.33333ZM6.77083 19.7917C5.90937 19.7917 5.20833 19.0906 5.20833 18.2292C5.20833 17.3677 5.90937 16.6667 6.77083 16.6667C7.63229 16.6667 8.33333 17.3677 8.33333 18.2292C8.33333 19.0906 7.63229 19.7917 6.77083 19.7917Z" fill="#3A3A3A"/>
<path d="M17.7083 5.08237L13.8469 9.68029L15.3198 11.1532L22.9167 4.16675H19.9177C19.089 4.16693 18.2942 4.49628 17.7083 5.08237Z" fill="#3A3A3A"/>
</svg>
