<svg width="29" height="29" viewBox="0 0 29 29" fill="none" xmlns="http://www.w3.org/2000/svg">
<path d="M14.4998 2.41699C9.82359 2.41699 6.0415 6.19908 6.0415 10.8753C6.0415 17.2191 14.4998 26.5837 14.4998 26.5837C14.4998 26.5837 22.9582 17.2191 22.9582 10.8753C22.9582 6.19908 19.1761 2.41699 14.4998 2.41699ZM14.4998 13.8962C13.6987 13.8962 12.9303 13.5779 12.3638 13.0114C11.7973 12.4449 11.479 11.6765 11.479 10.8753C11.479 10.0742 11.7973 9.30579 12.3638 8.73927C12.9303 8.17276 13.6987 7.85449 14.4998 7.85449C15.301 7.85449 16.0694 8.17276 16.6359 8.73927C17.2024 9.30579 17.5207 10.0742 17.5207 10.8753C17.5207 11.6765 17.2024 12.4449 16.6359 13.0114C16.0694 13.5779 15.301 13.8962 14.4998 13.8962Z" fill="#401FB8"/>
</svg>
